<svg width="2000" height="2000" viewBox="0 0 2000 2000" fill="none" xmlns="http://www.w3.org/2000/svg">
<path d="M1000 2000C1552.3 2000 2000 1552.3 2000 1000C2000 447.7 1552.3 0 1000 0C447.7 0 0 447.7 0 1000C0 1552.3 447.7 2000 1000 2000Z" fill="#F00500"/>
<path d="M1330.31 1025.18C1329.74 1028.19 1320.9 1037.21 1312.06 1043.8C1286.1 1062.8 1239.64 1080.48 1192.42 1088.94C1165.53 1093.83 1138.63 1094.59 1130.54 1090.64C1125.27 1088 1124.52 1085.93 1126.4 1079.16C1130.35 1065.05 1143.14 1049.63 1163.08 1035.15C1173.24 1027.81 1214.43 1002.79 1233.62 992.257C1265.22 974.951 1290.8 964.606 1308.11 962.16C1313.56 961.408 1320.15 961.22 1322.22 962.16C1325.6 963.477 1329.37 973.446 1330.87 985.485C1331.62 991.881 1331.25 1020.1 1330.31 1025.18Z" fill="black"/>
<path d="M887.129 1087.44C886 1089.7 880.357 1092.14 873.962 1093.08C867.566 1094.02 848.003 1093.46 836.905 1092.14C797.027 1086.87 754.703 1074.65 723.854 1059.6C706.548 1051.13 694.133 1042.67 684.916 1033.45L679.649 1028L679.085 1020.85C678.144 1008.43 678.332 988.871 679.837 981.911C680.778 976.08 682.847 970.436 685.668 965.358C687.173 963.477 687.173 963.477 693.945 963.477C702.222 963.477 709.181 964.793 720.468 968.367C743.605 975.515 778.028 992.821 819.975 1018.03C854.587 1038.72 867.566 1048.88 877.536 1062.8C884.307 1071.45 888.822 1083.68 887.129 1087.44Z" fill="black"/>
<path d="M1153.49 1349.28C1153.49 1349.85 1151.23 1358.87 1148.41 1369.6C1145.59 1380.32 1143.33 1388.97 1143.33 1389.35C1141.26 1389.54 1139.38 1389.72 1137.31 1389.54H1131.29L1123.01 1409.1C1118.5 1419.82 1114.36 1429.79 1113.8 1431.29L1112.67 1433.93L1108.72 1427.53L1104.77 1421.14V1369.03L1103.26 1369.41C1100.07 1370.16 1077.3 1373.17 1067.34 1374.11C1026.14 1378.25 984.757 1377.31 943.75 1371.48C937.166 1370.54 931.523 1369.78 931.335 1369.97C931.147 1370.16 931.335 1382.2 931.711 1397.06L932.275 1423.77L929.078 1428.66C927.385 1431.3 925.692 1433.55 925.692 1433.74C925.127 1434.3 923.246 1431.3 918.92 1422.64C914.217 1413.61 910.832 1404.02 908.386 1394.05L907.069 1388.6L901.238 1388.97L895.407 1389.54L893.902 1382.58C893.15 1378.81 892.209 1372.98 891.833 1369.78L891.269 1363.77L886.378 1359.44C883.556 1356.99 880.735 1354.55 880.17 1354.17C879.23 1353.42 878.854 1352.1 878.854 1350.97V1348.72L902.367 1348.9L925.88 1349.09L926.632 1351.54L927.385 1353.98L935.473 1354.36C939.988 1354.55 954.284 1354.92 967.075 1355.3L990.588 1355.86L996.608 1346.46L1002.81 1337.05H1010.72L1010.53 1317.49L1010.34 1297.93L999.993 1293.41C966.699 1278.74 947.136 1262 939.8 1241.69C938.295 1237.55 938.295 1236.04 937.919 1217.23C937.73 1198.61 937.73 1196.92 939.047 1192.78C941.681 1183.37 949.017 1176.04 958.422 1173.59C961.62 1172.65 970.085 1172.65 1014.48 1172.65L1066.77 1172.84L1072.6 1175.66C1079.56 1179.05 1082.76 1181.49 1086.71 1186.76C1091.22 1192.78 1092.54 1197.48 1092.54 1208.95C1092.54 1225.32 1091.41 1239.43 1089.72 1245.07C1087.27 1252.78 1083.51 1260.12 1078.81 1266.7C1069.4 1278.74 1052.29 1290.78 1036.67 1296.24L1032.16 1297.93L1032.35 1317.68L1032.54 1337.43L1036.67 1337.81L1040.81 1338.18L1046.46 1346.65L1051.91 1355.11H1077.12C1091.04 1355.11 1103.26 1355.3 1104.39 1355.49C1106.27 1355.86 1106.65 1355.68 1108.53 1352.48L1110.79 1349.09H1132.42C1148.6 1348.34 1153.49 1348.72 1153.49 1349.28Z" fill="black"/>
<path d="M1054.17 1403.26C1050.59 1405.33 1048.15 1406.27 1047.58 1405.9C1047.02 1405.71 1044.38 1403.45 1041.56 1401.38L1036.48 1397.24L1031.22 1402.89C1019.74 1415.3 1019.37 1415.87 1015.98 1416.06C1010.71 1416.62 1009.59 1415.68 1003.19 1406.09C999.804 1401.2 997.17 1397.06 997.17 1397.06C997.17 1397.06 994.725 1396.68 991.903 1396.49L986.636 1395.93L984.191 1401.01L981.746 1406.09L977.419 1404.77C974.033 1403.64 970.648 1402.32 967.45 1400.82L961.807 1398V1387.28L1011.84 1387.46L1061.88 1387.65L1062.07 1392.73C1062.25 1398.75 1062.44 1398.56 1054.17 1403.26Z" fill="black"/>
<path d="M1524.43 1173.78C1524.24 1173.03 1524.24 1171.71 1524.05 1169.64C1478.9 1164.75 1350.05 1161.74 1230.42 1260.49C1230.42 1260.49 1191.86 1083.68 1011.28 1083.68C830.694 1083.68 763.729 1260.49 763.729 1260.49C662.529 1151.58 527.093 1159.48 478.185 1166.63C478.185 1167.76 477.997 1169.08 477.997 1170.2C476.492 1197.48 477.245 1210.46 481.759 1227.58C495.867 1281.19 539.32 1340.25 607.414 1398.19C718.96 1492.99 870.197 1561.46 984.753 1569.36C1104.2 1577.45 1280.45 1507.66 1397.83 1405.71C1416.27 1389.35 1433.57 1372.04 1449.75 1353.61C1461.41 1340.06 1478.72 1316.74 1477.4 1316.74C1477.02 1316.74 1477.4 1316.36 1478.15 1315.99C1478.72 1315.61 1479.28 1315.05 1478.9 1314.67C1478.72 1314.48 1479.09 1313.92 1479.66 1313.73C1480.22 1313.54 1480.6 1313.16 1480.41 1312.79C1480.22 1312.41 1480.41 1312.04 1481.16 1311.85C1481.73 1311.66 1481.91 1311.09 1481.73 1310.72C1481.54 1310.34 1481.73 1309.97 1482.1 1309.97C1482.48 1309.97 1482.86 1309.4 1482.86 1309.03C1482.86 1308.65 1483.23 1308.09 1483.61 1308.09C1483.98 1308.09 1484.36 1307.71 1484.36 1307.33C1484.92 1305.83 1485.86 1304.32 1486.81 1303.01C1489.63 1298.68 1500.91 1278.55 1502.42 1275.17C1513.14 1250.9 1519.91 1229.27 1523.11 1207.64C1524.24 1197.29 1525.18 1178.29 1524.43 1173.78ZM1054.16 1403.27C1050.59 1405.34 1048.14 1406.28 1047.58 1405.9C1047.02 1405.71 1044.38 1403.45 1041.56 1401.39L1036.48 1397.25L1031.21 1402.89C1019.74 1415.31 1019.36 1415.87 1015.98 1416.06C1010.71 1416.62 1009.58 1415.68 1003.19 1406.09C999.801 1401.2 997.167 1397.06 997.167 1397.06C997.167 1397.06 994.722 1396.68 991.901 1396.49L986.634 1395.93L984.188 1401.01L981.743 1406.09L977.416 1404.77C974.031 1403.64 970.645 1402.33 967.447 1400.82L961.804 1398V1387.28L1011.84 1387.47L1061.88 1387.65L1062.06 1392.73C1062.25 1398.75 1062.44 1398.56 1054.16 1403.27ZM1148.22 1369.41C1145.39 1380.13 1143.14 1388.78 1143.14 1389.16C1141.07 1389.35 1139.19 1389.53 1137.12 1389.35H1131.1L1123.01 1409.1C1118.5 1419.82 1114.36 1429.79 1113.79 1431.29L1112.66 1433.93L1108.71 1427.53L1104.76 1421.14V1369.03L1103.26 1369.41C1100.06 1370.16 1077.3 1373.17 1067.33 1374.11C1026.14 1378.25 984.753 1377.31 943.746 1371.48C937.162 1370.54 931.519 1369.78 931.331 1369.97C931.143 1370.16 931.331 1382.2 931.707 1397.06L932.271 1423.77L929.074 1428.66C927.381 1431.29 925.688 1433.55 925.688 1433.74C925.123 1434.3 923.242 1431.29 918.916 1422.64C914.213 1413.61 910.827 1404.02 908.382 1394.05L907.065 1388.59L901.234 1388.97L895.403 1389.53L893.898 1382.57C893.145 1378.81 892.205 1372.98 891.829 1369.78L891.264 1363.76L886.374 1359.44C883.552 1356.99 880.731 1354.55 880.166 1354.17C879.226 1353.42 878.849 1352.1 878.849 1350.97V1348.72L902.362 1348.9L925.876 1349.09L926.628 1351.54L927.381 1353.98L935.469 1354.36C939.984 1354.55 954.28 1354.92 967.071 1355.3L990.584 1355.86L996.603 1346.46L1002.81 1337.05H1010.71L1010.52 1317.49L1010.33 1297.93L999.989 1293.41C966.694 1278.74 947.132 1262 939.795 1241.68C938.291 1237.55 938.291 1236.04 937.914 1217.23C937.726 1198.61 937.726 1196.92 939.043 1192.78C941.676 1183.37 949.013 1176.04 958.418 1173.59C961.616 1172.65 970.08 1172.65 1014.47 1172.65L1066.77 1172.84L1072.6 1175.66C1079.56 1179.05 1082.76 1181.49 1086.71 1186.76C1091.22 1192.78 1092.54 1197.48 1092.54 1208.95C1092.54 1225.32 1091.41 1239.43 1089.72 1245.07C1087.27 1252.78 1083.51 1260.12 1078.81 1266.7C1069.4 1278.74 1052.28 1290.78 1036.67 1296.23L1032.16 1297.93L1032.34 1317.68L1032.53 1337.43L1036.67 1337.81L1040.81 1338.18L1046.45 1346.65L1051.91 1355.11H1077.11C1091.03 1355.11 1103.26 1355.3 1104.39 1355.49C1106.27 1355.86 1106.64 1355.68 1108.53 1352.48L1110.78 1349.09H1132.42C1149.16 1349.09 1154.05 1349.28 1154.05 1349.84C1153.48 1349.66 1151.04 1358.87 1148.22 1369.41Z" fill="white"/>
<path d="M1522.92 1154.59C1522.55 1146.13 1521.79 1134.28 1521.23 1128.45C1513.14 1043.05 1491.32 973.259 1449.94 899.333C1448.25 896.512 1446.74 893.69 1445.8 891.433C1445.42 890.869 1445.24 890.304 1445.05 889.928C1450.88 872.434 1474.77 799.261 1493.77 715.555C1519.54 601.939 1535.9 469.137 1485.87 429.259C1485.87 429.259 1399.34 422.863 1283.47 536.478C1252.05 567.892 1223.27 601.939 1197.69 638.243L1189.6 635.61C1142.95 620.373 1094.61 610.968 1045.89 607.77C1031.22 606.642 976.477 606.642 958.607 607.77C904.621 611.344 863.238 619.433 816.212 635.798C814.331 636.55 812.638 637.115 810.945 637.679C784.422 601.563 754.889 567.704 722.347 536.667C601.772 422.487 512.046 429.07 512.046 429.07C459 470.265 477.058 609.087 504.522 726.465C522.58 804.152 544.776 872.434 553.053 897.076C552.488 898.393 551.736 899.898 550.983 901.214C507.155 990 483.454 1075.59 477.811 1166.63C526.906 1159.48 662.154 1151.39 763.542 1260.5C763.542 1260.5 830.508 1083.68 1011.09 1083.68C1191.67 1083.68 1230.23 1260.5 1230.23 1260.5C1349.87 1161.74 1478.72 1164.94 1523.86 1169.64C1523.68 1165.88 1523.3 1160.24 1522.92 1154.59ZM588.605 826.16C588.605 826.16 518.253 650.282 536.311 549.834C539.321 532.904 544.964 518.044 553.805 506.758C553.805 506.758 633.562 514.658 762.225 657.618C762.225 657.618 737.772 669.469 705.042 694.675C705.042 694.675 704.853 694.863 704.665 694.863C669.113 722.138 623.592 765.402 588.605 826.16ZM887.127 1087.44C885.999 1089.7 880.356 1092.14 873.96 1093.08C867.564 1094.02 848.002 1093.46 836.903 1092.14C797.025 1086.87 754.701 1074.65 723.852 1059.6C706.547 1051.13 694.131 1042.67 684.914 1033.45L679.647 1028L679.083 1020.85C678.143 1008.43 678.331 988.871 679.836 981.911C680.776 976.08 682.845 970.437 685.667 965.358C687.172 963.477 687.172 963.477 693.943 963.477C702.22 963.477 709.18 964.794 720.466 968.368C743.603 975.516 778.026 992.821 819.974 1018.03C854.585 1038.72 867.564 1048.88 877.534 1062.8C884.306 1071.45 888.82 1083.68 887.127 1087.44ZM1330.3 1025.18C1329.74 1028.19 1320.9 1037.21 1312.06 1043.8C1286.1 1062.8 1239.64 1080.48 1192.42 1088.94C1165.52 1093.83 1138.62 1094.59 1130.54 1090.64C1125.27 1088 1124.52 1085.93 1126.4 1079.16C1130.35 1065.05 1143.14 1049.63 1163.08 1035.15C1173.24 1027.81 1214.43 1002.79 1233.62 992.257C1265.22 974.952 1290.8 964.606 1308.11 962.16C1313.56 961.408 1320.15 961.22 1322.21 962.16C1325.6 963.477 1329.36 973.447 1330.87 985.485C1331.62 991.881 1331.24 1020.1 1330.3 1025.18ZM1299.08 694.675L1298.7 694.487C1267.1 669.281 1243.4 657.43 1243.4 657.43C1367.74 514.47 1444.67 506.57 1444.67 506.57C1453.14 518.044 1458.59 532.716 1461.6 549.646C1479.09 650.094 1411.19 826.16 1411.19 826.16C1382.78 775.56 1344.6 730.791 1299.08 694.675Z" fill="#FFA409"/>
<path d="M1461.79 549.648C1447.12 547.767 1377.71 547.391 1299.08 694.677L1298.7 694.489C1267.1 669.283 1243.4 657.433 1243.4 657.433C1367.74 514.473 1444.67 506.572 1444.67 506.572C1453.32 518.047 1458.78 532.719 1461.79 549.648Z" fill="#FF9300"/>
<path d="M1411.38 826.162C1382.78 775.373 1344.79 730.792 1299.08 694.676C1377.7 547.39 1446.93 547.766 1461.79 549.647C1479.28 650.283 1411.38 826.162 1411.38 826.162Z" fill="#FF8300"/>
<path d="M1464.61 550.213C1463.67 550.025 1462.73 549.837 1461.79 549.648L1464.61 550.213Z" fill="#FF8300"/>
<path d="M762.225 657.433C762.225 657.433 737.772 669.283 705.042 694.489C705.042 694.489 704.853 694.677 704.665 694.677C623.216 547.203 551.548 547.767 536.123 549.648C539.133 532.719 544.776 517.859 553.617 506.572C553.805 506.572 633.561 514.473 762.225 657.433Z" fill="#FF9300"/>
<path d="M704.852 694.676C669.112 722.14 623.591 765.216 588.603 826.162C588.603 826.162 518.252 650.283 536.31 549.647C551.546 547.766 623.403 547.39 704.852 694.676Z" fill="#FF8300"/>
<path d="M536.312 549.648C535.372 549.837 534.243 550.025 533.303 550.213L536.312 549.648Z" fill="#FF8300"/>
<path d="M1221.01 923.787C1221.01 923.787 1160.82 927.549 1168.34 880.523C1175.87 833.497 1222.89 827.853 1236.06 829.735C1249.23 831.616 1301.9 850.426 1292.49 889.928C1283.09 929.43 1269.92 921.906 1262.4 923.787C1254.87 925.668 1221.01 923.787 1221.01 923.787Z" fill="white"/>
<path d="M777.086 923.787C777.086 923.787 716.892 927.549 724.417 880.523C731.941 833.497 778.967 827.853 792.134 829.735C805.302 831.616 857.971 850.426 848.566 889.928C839.161 929.43 825.993 921.906 818.469 923.787C810.945 925.668 777.086 923.787 777.086 923.787Z" fill="white"/>
</svg>
